<svg t="1724751874746" class="icon" viewBox="0 0 1024 1024" version="1.1" xmlns="http://www.w3.org/2000/svg" p-id="2198" width="16" height="16"><path d="M592.5 312.4v412.1h-40V312.4h40z m-142 0v412.1h40V312.4h-40z m-102 0v412.1h40V312.4h-40z" fill="#B3BAC3" p-id="2199"></path><path d="M771.5 336.5h-64v-128c0-8.8-7.2-16-16-16h-439c-8.8 0-16 7.2-16 16v607c0 8.8 7.2 16 16 16h439c8.8 0 16-7.2 16-16v-60h64c8.8 0 16-7.2 16-16v-387c0-8.8-7.2-16-16-16z m-104 455h-391v-559h391v559z m80-76h-40v-339h40v339z" fill="#3C3F44" p-id="2200"></path></svg>