<svg t="1724753108375" class="icon" viewBox="0 0 1024 1024" version="1.1" xmlns="http://www.w3.org/2000/svg" p-id="942" width="200" height="200"><path d="M680.53333333 392.53333333l-0.128 164.672a244.26666667 244.26666667 0 0 1-15.008 85.06666667 214.016 214.016 0 0 1-39.46666666 67.072c-32.256 36.84266667-74.18666667 57.14133333-118.08 57.14133333h-79.89333334c-43.89333333 0-85.84533333-20.26666667-118.10133333-57.16266666a214.29333333 214.29333333 0 0 1-39.46666667-67.104 244.48 244.48 0 0 1-14.93333333-85.09866667l-0.14933333-164.58666667H680.53333333m24.37333334-85.33333333H225.824c-30.85866667 0-55.88266667 28.608-55.86133333 63.88266667l0.07466666 186.06933333c0.064 162.76266667 115.50933333 294.66666667 257.89866667 294.66666667h79.89333333c142.34666667 0 257.78133333-131.84 257.89866667-294.54933334l0.13866667-180.32c0-38.50666667-27.27466667-69.74933333-60.97066667-69.74933333z" fill="#1C212B" p-id="943"></path><path d="M785.44 734.32533333h-0.288l-85.504-0.17066666 0.17066667-85.33333334 85.504 0.17066667h0.10666666A54.848 54.848 0 0 0 840.26666667 594.13333333v-77.86666666a54.90133333 54.90133333 0 0 0-54.83733334-54.82666667h-84.55466666v-85.33333333h84.55466666c77.29066667 0 140.17066667 62.88 140.17066667 140.16v77.86666666a140.17066667 140.17066667 0 0 1-140.16 140.17066667zM306.816 281.96266667a42.66666667 42.66666667 0 0 1-42.66666667-42.42133334l-0.77866666-136.53333333a42.66666667 42.66666667 0 0 1 42.42133333-42.912h0.24533333a42.66666667 42.66666667 0 0 1 42.66666667 42.42133333l0.768 136.53333334a42.66666667 42.66666667 0 0 1-42.42133333 42.912zM579.94666667 281.96266667a42.66666667 42.66666667 0 0 1-42.66666667-42.66666667v-136.53333333a42.66666667 42.66666667 0 0 1 85.33333333 0v136.53333333a42.66666667 42.66666667 0 0 1-42.66666666 42.66666667zM853.06666667 964.26666667H169.96266667a42.66666667 42.66666667 0 1 1 0-85.33333334h683.104a42.66666667 42.66666667 0 0 1 0 85.33333334z" fill="#1C212B" p-id="944"></path></svg>